<svg width="360" height="562" viewBox="0 0 360 562" fill="none" xmlns="http://www.w3.org/2000/svg">
<g clip-path="url(#clip0_147_867)">
<mask id="mask0_147_867" style="mask-type:luminance" maskUnits="userSpaceOnUse" x="0" y="0" width="360" height="562">
<path d="M360 0H0V562H360V0Z" fill="white"/>
</mask>
<g mask="url(#mask0_147_867)">
<path d="M35 101.742C25.6525 101.742 14.5125 119.014 14.5125 140.5C14.5125 163.191 25.965 190.086 35 190.086C40.8225 190.086 44.23 164.174 44.23 140.5C44.23 119.997 40.5125 101.742 35 101.742Z" stroke="#F9BD02" stroke-opacity="0.35" stroke-width="2"/>
<path d="M95.2775 -2.33196e-06C100.392 2.22793 100.745 15.2744 105 15.2744C106.855 15.2744 105.35 0.943355 107.5 -2.33196e-06C122.85 -6.69382 123.75 -2.33196e-06 140 -2.33196e-06C157.5 -2.33196e-06 157.5 -2.33196e-06 175 -2.33196e-06C192.5 -2.33196e-06 192.5 -2.33196e-06 210 -2.33196e-06C222.99 -2.33196e-06 229.04 -29.5953 235.98 -2.33196e-06C245.51 40.6547 239.143 70.5812 242.94 140.5C243.653 153.607 242.033 163.301 245 166.041C260.562 180.392 263.79 184.165 280 174.672C285.605 171.39 288.63 156.788 288.63 140.5C288.63 125.497 283.912 128.016 280 112.089C266.655 57.7656 254.115 33.3587 254.115 -2.33196e-06C254.115 -22.6807 267.057 -2.33196e-06 280 -2.33196e-06C297.5 -2.33196e-06 297.5 -2.33196e-06 315 -2.33196e-06C332.5 -2.33196e-06 332.5 -2.33196e-06 350 -2.33196e-06C367.5 -2.33196e-06 376.25 -35.125 385 -2.33196e-06C393.75 35.125 385 70.25 385 140.5C385 210.75 385 210.75 385 281C385 351.25 385 351.25 385 421.5C385 461.643 385.4 461.713 385 501.786C384.7 531.963 389.018 552.677 383.6 562C371.518 582.784 366.8 562 350 562C332.5 562 332.5 562 315 562C300.507 562 299.353 572.337 286.015 562C281.853 558.779 283.095 548.121 280 534.884C266.67 477.871 265.275 481.985 253.168 421.5C247.775 394.554 249.46 360.031 245 360.031C240.273 360.031 235.54 387.007 234.792 421.5C233.352 487.997 247.278 524.296 240.625 562C234.883 594.546 225.312 562 210 562C200.33 562 199.528 572.618 190.658 562C182.028 551.673 181.793 520.101 175 520.101C170.463 520.101 173.423 555.507 168 562C155.922 576.461 154 562 140 562C122.5 562 122.5 562 105 562C91.875 562 86.925 588.846 78.75 562C69.425 531.371 79.1475 452.119 70 447.041C57.2725 439.976 53.8225 505.74 35 537.714C19.9875 563.214 18.685 550.65 2.3325 562C1.185 562.793 0.517503 564.599 3.33786e-06 562C-0.647497 558.748 -0.202497 556.079 3.33786e-06 550.288C2.265 485.829 2.3225 485.799 4.935 421.5C7.7925 351.16 12.465 347.998 10.9375 281C9.9975 239.773 3.15 245.524 3.33786e-06 205.05C-2.3175 175.274 3.33786e-06 172.775 3.33786e-06 140.5C3.33786e-06 70.25 -8.75 35.125 3.33786e-06 -2.33196e-06C8.75 -35.125 17.5 -2.33196e-06 35 -2.33196e-06C52.5 -2.33196e-06 52.5 -2.33196e-06 70 -2.33196e-06C82.64 -2.33196e-06 82.8925 -5.40925 95.2775 -2.33196e-06Z" stroke="#F9BD02" stroke-opacity="0.35" stroke-width="2"/>
<path d="M105 258.058C100.083 261.059 99.4625 264.612 96.515 281C84.7625 346.332 73.19 370.408 75.6 421.5C77.4325 460.328 91.665 460.84 105 460.84C110.54 460.84 109.2 441.25 113.353 421.5C126.7 357.974 125.973 354.421 140 294.287C142.358 284.171 146.125 289.681 146.125 281C146.125 269.75 144.213 256.764 140 254.415C123.65 245.293 121.825 247.772 105 258.058Z" stroke="#F9BD02" stroke-opacity="0.35" stroke-width="2"/>
<path d="M210 254.325C204.28 254.325 199.062 265.134 199.062 281C199.062 299.978 204.04 324.013 210 324.013C217.465 324.013 225.91 299.345 225.91 281C225.91 264.501 217.705 254.325 210 254.325Z" stroke="#F9BD02" stroke-opacity="0.35" stroke-width="2"/>
<path d="M350 173.558C345.55 173.558 350.338 234.545 343.593 281C332.838 355.054 329.463 348.48 315 414.585C314.095 418.73 312.858 417.957 312.858 421.5C312.858 425.173 313.605 428.445 315 429.027C332.178 436.253 332.58 439.333 350 437.116C362.195 435.57 371.845 452.581 374.23 421.5C377.833 374.523 368.738 350.236 361.973 281C356.623 226.265 354.74 173.558 350 173.558Z" stroke="#F9BD02" stroke-opacity="0.35" stroke-width="2"/>
<path d="M35 61.3684C19.47 53.0588 10.01 129.23 6.81189e-06 111.677C-7.48999 98.5407 -7.74999 24.728 6.81189e-06 1.98149e-05C9.75001 -31.1107 17.5 1.98149e-05 35 1.98149e-05C48.3 1.98149e-05 49.365 -10.9088 61.6 1.98149e-05C66.865 4.69673 64.985 20.6335 70 31.2211C86.685 66.4465 90.44 100.718 105 91.6261C115.44 85.1029 109.898 26.4441 120 1.98149e-05C127.397 -19.3689 130 1.98149e-05 140 1.98149e-05C157.5 1.98149e-05 157.5 1.98149e-05 175 1.98149e-05C192.5 1.98149e-05 192.5 1.98149e-05 210 1.98149e-05C218.48 1.98149e-05 223.692 -22.8714 226.96 1.98149e-05C233.73 47.3786 234.907 80.6671 230.072 140.5C226.427 185.601 220.757 179.158 210 209.857C196.137 249.408 180.832 238.689 180.832 281C180.832 331.61 195.415 338.354 210 395.698C213.28 408.604 216.562 405.011 216.562 421.5C216.562 466.55 218.255 511.42 210 518.766C197.475 529.906 189.405 446.559 175 458.472C163.257 468.176 168.85 529.033 157.705 562C151.35 580.797 148.852 562 140 562C122.5 562 122.5 562 105 562C97.9525 562 90.9025 573.381 90.9025 562C90.9025 546.224 98.3725 536.429 105 507.677C114.568 466.179 114.182 464.704 123.295 421.5C131.682 381.739 129.96 373.309 140 341.756C152.312 303.059 168 320.701 168 281C168 229.567 156.897 184.868 140 159.488C125.397 137.55 121.025 158.554 105 186.373C86.025 219.311 87.5 233.692 70 281C64.165 351.25 68.0475 362.279 58.3325 421.5C50.5475 468.949 46.1875 494.349 35 494.349C25.0975 494.349 18.34 466.39 16.155 421.5C13.145 359.72 17.8625 345.369 24.61 281C27.285 255.489 30.44 263.648 35 241.74C45.0575 193.398 53.845 188.822 53.845 140.5C53.845 98.6411 46.3925 67.4701 35 61.3684Z" stroke="#F9BD02" stroke-opacity="0.35" stroke-width="2"/>
<path d="M280 72.6184C271.018 38.8583 263.23 21.6169 263.23 1.00042e-05C263.23 -14.6923 271.615 1.00042e-05 280 1.00042e-05C297.5 1.00042e-05 297.5 1.00042e-05 315 1.00042e-05C327.618 1.00042e-05 335.943 -29.2842 340.233 1.00042e-05C346.235 40.9658 337.83 70.2099 335.588 140.5C333.348 210.71 337.295 217.614 331.268 281C327 325.87 323.943 322.367 315 357.011C305.81 392.617 304.88 388.683 295 421.5C287.38 446.81 287.175 473.264 280 473.264C273.55 473.264 272.253 451.818 267.75 421.5C257.975 355.686 248.103 335.434 251.448 281C254.228 235.749 267.075 259.072 280 222.141C291.66 188.822 300.618 179.419 300.618 140.5C300.618 104.662 289.71 109.108 280 72.6184Z" stroke="#F9BD02" stroke-opacity="0.35" stroke-width="2"/>
<path d="M363.125 140.5C358.203 76.0306 356.765 43.555 363.547 9.78385e-06C367.702 -26.695 380.925 -26.695 385 9.78385e-06C391.65 43.555 385 70.25 385 140.5C385 210.75 390.02 281 385 281C379.083 281 368.93 216.531 363.125 140.5Z" stroke="#F9BD02" stroke-opacity="0.35" stroke-width="2"/>
<path d="M299.688 562C299.688 540.825 304.978 507.988 315 491.75C330.135 467.233 334.623 461.502 350 480.48C363.09 496.627 371.933 538.486 371.933 562C371.933 579.251 360.965 562 350 562C332.5 562 332.5 562 315 562C307.345 562 299.688 575.95 299.688 562Z" stroke="#F9BD02" stroke-opacity="0.35" stroke-width="2"/>
<path d="M35 20.9947C18.0375 29.3143 15.1675 30.7193 5.96046e-07 21.6169C-2.3325 20.222 -2.3325 1.44515 5.96046e-07 7.88321e-06C15.1675 -9.36331 17.5 7.88321e-06 35 7.88321e-06C39.55 7.88321e-06 44.1 -4.87735 44.1 7.88321e-06C44.1 5.62001 40.0875 18.5059 35 20.9947Z" stroke="#F9BD02" stroke-opacity="0.35" stroke-width="2"/>
<path d="M63.4625 140.5C63.4625 117.709 65.0675 96.2726 70 96.2726C79.78 96.2726 92.885 115.963 92.885 140.5C92.885 166.513 79.3125 197.372 70 197.372C64.6025 197.372 63.4625 168.259 63.4625 140.5Z" stroke="#F9BD02" stroke-opacity="0.35" stroke-width="2"/>
<path d="M140 60.2143C134.625 35.115 132.5 20.8041 132.5 1.42201e-05C132.5 -9.30309 136.25 1.42201e-05 140 1.42201e-05C157.5 1.42201e-05 157.5 1.42201e-05 175 1.42201e-05C192.5 1.42201e-05 192.5 1.42201e-05 210 1.42201e-05C213.97 1.42201e-05 217.273 -12.9862 217.938 1.42201e-05C220.875 57.2638 220.325 75.4586 217.205 140.5C216.358 158.163 214.428 159.608 210 165.399C193.325 187.206 190.625 203.896 175 195.696C166.915 191.451 169.24 166.282 162.58 140.5C151.74 98.5407 149.665 105.365 140 60.2143Z" stroke="#F9BD02" stroke-opacity="0.35" stroke-width="2"/>
<path d="M280 33.148C275.758 18.3453 272.345 9.86511 272.345 8.02926e-06C272.345 -6.70385 276.173 8.02926e-06 280 8.02926e-06C297.5 8.02926e-06 297.5 8.02926e-06 315 8.02926e-06C317.44 8.02926e-06 319.673 -8.59056 319.883 8.02926e-06C321.39 61.6594 318.668 70.2199 318.433 140.5C318.198 210.72 320.405 213.249 318.943 281C318.69 292.712 317.635 293.725 315 299.426C298.165 335.875 292.975 371.201 280 365.3C272.71 361.988 274.473 318.202 274.473 281C274.473 270.352 277.723 277.999 280 269.609C296.788 207.749 312.603 202.059 312.603 140.5C312.603 83.8283 295.888 88.5953 280 33.148Z" stroke="#F9BD02" stroke-opacity="0.35" stroke-width="2"/>
<path d="M27.3725 421.5C27.3725 373.63 30.7775 317.65 35 317.65C39.3125 317.65 44.445 375.025 44.445 421.5C44.445 441.692 39.5275 450.985 35 450.985C30.9925 450.985 27.3725 440.297 27.3725 421.5Z" stroke="#F9BD02" stroke-opacity="0.35" stroke-width="2"/>
<path d="M133.238 421.5C136.64 405.433 135.545 389.225 140 389.225C149.945 389.225 160.623 388.493 162.038 421.5C164.328 474.88 156.63 503.231 147.413 562C145.613 573.481 143.708 562 140 562C122.5 562 122.5 562 105 562C104.028 562 103.055 563.576 103.055 562C103.055 559.822 104.12 558.598 105 554.503C119.21 488.348 119.14 488.077 133.238 421.5Z" stroke="#F9BD02" stroke-opacity="0.35" stroke-width="2"/>
<path d="M313.36 562C313.36 559.732 313.81 555.718 315 554.473C332.13 536.64 333.723 521.135 350 523.844C356.358 524.898 360.268 551.001 360.268 562C360.268 570.079 355.133 562 350 562C332.5 562 332.5 562 315 562C314.18 562 313.36 563.495 313.36 562Z" stroke="#F9BD02" stroke-opacity="0.35" stroke-width="2"/>
</g>
</g>
<defs>
<clipPath id="clip0_147_867">
<rect width="360" height="562" fill="white"/>
</clipPath>
</defs>
</svg>
