<svg width="150" height="40" viewBox="0 0 150 40" fill="none" xmlns="http://www.w3.org/2000/svg">
<path fill-rule="evenodd" clip-rule="evenodd" d="M15.5 2C15.8333 2 16.1667 2 16.5 2C16.5 5.28206 16.5 8.56409 16.5 11.8462C15.4526 11.7541 14.7304 11.2413 14.3333 10.3077C14.1671 9.08117 14.1115 7.8504 14.1667 6.61538C14.1115 5.38037 14.1671 4.1496 14.3333 2.92308C14.6797 2.55074 15.0686 2.24305 15.5 2Z" fill="#E4296B"/>
<path fill-rule="evenodd" clip-rule="evenodd" d="M15.5 1.99998C15.5 1.89742 15.5 1.79486 15.5 1.69229C16.7305 1.52959 17.7861 1.83728 18.6667 2.61537C19.1225 3.90755 19.2891 5.24088 19.1667 6.61537C18.8915 7.99442 18.7248 9.43033 18.6667 10.9231C18.0886 11.5232 17.3664 11.8309 16.5 11.8461C16.5 8.56408 16.5 5.28205 16.5 1.99998C16.1667 1.99998 15.8333 1.99998 15.5 1.99998Z" fill="#CC3171"/>
<path fill-rule="evenodd" clip-rule="evenodd" d="M28.5 1.69232C28.5 5.07694 28.5 8.46155 28.5 11.8462C27.8059 11.8548 27.1948 11.6496 26.6667 11.2308C26.2249 9.72272 26.0582 8.18426 26.1667 6.6154C26.1114 5.27814 26.167 3.94481 26.3333 2.6154C26.9114 2.0152 27.6336 1.70751 28.5 1.69232Z" fill="#E3246B"/>
<path fill-rule="evenodd" clip-rule="evenodd" d="M28.5 1.69232C28.8333 1.69232 29.1667 1.69232 29.5 1.69232C29.9104 2.067 30.2993 2.47726 30.6667 2.92309C30.833 4.14961 30.8885 5.38038 30.8334 6.6154C30.8886 7.95266 30.833 9.28598 30.6667 10.6154C30.1431 11.3609 29.4209 11.7712 28.5 11.8462C28.5 8.46155 28.5 5.07694 28.5 1.69232Z" fill="#CA2E6E"/>
<path fill-rule="evenodd" clip-rule="evenodd" d="M14.1667 6.61537C14.1115 7.85039 14.1671 9.08116 14.3333 10.3077C14.7304 11.2413 15.4526 11.7541 16.5 11.8461C17.3664 11.8309 18.0886 11.5233 18.6667 10.9231C18.7248 9.43033 18.8915 7.99442 19.1666 6.61537C21.5 6.61537 23.8333 6.61537 26.1666 6.61537C26.0582 8.18424 26.2248 9.7227 26.6666 11.2308C27.1947 11.6496 27.8058 11.8548 28.5 11.8461C29.4208 11.7711 30.1431 11.3609 30.6666 10.6154C30.833 9.28596 30.8885 7.95264 30.8333 6.61537C33.3913 6.56417 35.947 6.61547 38.5 6.76922C39.1956 7.01297 39.807 7.37193 40.3333 7.84614C40.4996 9.48396 40.5553 11.125 40.5 12.7692C28.5 12.7692 16.5 12.7692 4.5 12.7692C4.5 11.2308 4.5 9.6923 4.5 8.15384C4.88213 7.54614 5.43767 7.08461 6.16666 6.76922C8.83103 6.61547 11.4977 6.56417 14.1667 6.61537Z" fill="#E3801D"/>
<path fill-rule="evenodd" clip-rule="evenodd" d="M4.5 8.15384C4.5 9.6923 4.5 11.2308 4.5 12.7692C16.5 12.7692 28.5 12.7692 40.5 12.7692C40.5557 20.3597 40.5 27.9494 40.3333 35.5385C39.9637 36.2508 39.3523 36.7123 38.5 36.9231C27.7222 37.1283 16.9444 37.1283 6.16666 36.9231C5.45333 36.6237 4.89776 36.1621 4.5 35.5385C4.05676 26.3598 4.05676 17.2316 4.5 8.15384Z" fill="#F3A41A"/>
<path fill-rule="evenodd" clip-rule="evenodd" d="M56.5 14.3077C57.9847 14.036 59.1514 14.4463 60 15.5385C60.9307 18.2448 61.542 21.014 61.8334 23.8462C62.9724 23.9373 64.028 24.245 65 24.7692C66.0547 24.6872 66.388 24.1744 66 23.2308C64.3497 22.4254 63.0164 21.2972 62 19.8462C61.4877 16.5815 62.9877 14.7354 66.5 14.3077C67.349 14.29 68.1267 14.4951 68.8334 14.9231C69.856 14.3211 70.967 14.1672 72.1667 14.4615C72.2644 15.6113 72.3197 16.7907 72.3334 18C73.611 16.8205 74.889 15.641 76.1667 14.4615C77.0934 14.3787 77.8154 14.7377 78.3334 15.5385C78.5557 15.9487 78.5557 16.359 78.3334 16.7692C77.2287 18.0456 76.062 19.2763 74.8334 20.4615C76.0317 21.9591 77.143 23.4976 78.1667 25.0769C77.509 25.8891 76.7314 26.607 75.8334 27.2308C74.6967 25.6494 73.4744 24.1109 72.1667 22.6154C71.8354 24.1403 71.7244 25.6788 71.8334 27.2308C70.522 27.3781 69.2997 27.173 68.1667 26.6154C66.332 27.4254 64.4987 27.4254 62.6667 26.6154C62.1007 26.9948 61.434 27.1999 60.6667 27.2308C60.0557 27.1795 59.4444 27.1282 58.8334 27.0769C58.5217 26.3444 58.4107 25.5752 58.5 24.7692C56.2364 24.3911 55.0144 25.2116 54.8334 27.2308C53.611 27.2308 52.389 27.2308 51.1667 27.2308C51.941 23.3939 53.2187 19.7016 55 16.1539C55.268 15.3397 55.768 14.7243 56.5 14.3077Z" fill="#E58348"/>
<path fill-rule="evenodd" clip-rule="evenodd" d="M84.5 15.2308C83.137 14.7971 81.915 15.0023 80.8333 15.8462C80.762 15.3403 80.8733 14.8788 81.1667 14.4615C82.4877 14.1118 83.5987 14.3682 84.5 15.2308Z" fill="#EEAF89"/>
<path fill-rule="evenodd" clip-rule="evenodd" d="M100.5 19.2308C100.497 19.7872 100.664 20.3 101 20.7692C101.166 19.8518 101.222 18.9287 101.167 18C101.112 16.8672 101.167 15.739 101.333 14.6154C103.032 13.9901 104.477 14.2978 105.667 15.5385C106.226 16.8855 106.782 18.2189 107.333 19.5385C107.444 17.8975 107.556 16.2564 107.667 14.6154C108.579 14.2737 109.524 14.2224 110.5 14.4615C110.484 17.0401 110.54 19.6555 110.667 22.3077C111.501 19.4733 112.779 16.8579 114.5 14.4615C115.864 14.0839 117.031 14.3403 118 15.2308C118.586 16.6268 119.03 18.0627 119.334 19.5385C119.97 17.2065 121.47 15.5142 123.834 14.4615C125.248 14.1497 126.526 14.4062 127.667 15.2308C128.494 14.7181 129.438 14.4617 130.5 14.4615C134.622 14.4518 138.734 14.4518 142.834 14.4615C144.97 15.4839 145.692 17.0737 145 19.2308C144.513 20.2856 143.902 21.26 143.167 22.1539C143.723 23.2821 144.278 24.4103 144.834 25.5385C144.187 26.2482 143.41 26.8123 142.5 27.2308C141.588 26.0629 140.755 24.8321 140 23.5385C139.548 23.2676 139.048 23.1651 138.5 23.2308C138.5 24.5641 138.5 25.8975 138.5 27.2308C134.721 26.8432 130.944 26.8432 127.167 27.2308C127.219 26.8082 127.164 26.3979 127 26C125.465 27.0591 123.743 27.418 121.834 27.0769C121.357 26.9338 120.968 26.6774 120.667 26.3077C120.506 26.5994 120.451 26.9071 120.5 27.2308C119.278 27.2308 118.056 27.2308 116.834 27.2308C116.834 26.4103 116.834 25.5898 116.834 24.7692C114.608 24.3329 113.275 25.1021 112.833 27.0769C110.944 27.2821 109.056 27.2821 107.167 27.0769C106.179 24.9966 105.235 22.894 104.333 20.7692C104.167 22.9207 104.111 25.0745 104.167 27.2308C102.167 27.2308 100.167 27.2308 98.1668 27.2308C98.1668 26.4103 98.1668 25.5898 98.1668 24.7692C97.0558 24.8718 95.9445 24.9744 94.8335 25.0769C94.6691 25.7863 94.5581 26.5043 94.5001 27.2308C92.5001 27.2308 90.5001 27.2308 88.5001 27.2308C88.5555 25.9958 88.4998 24.765 88.3335 23.5385C88.0001 24.1539 87.6668 24.7692 87.3335 25.3846C86.7055 26.0235 85.9831 26.1261 85.1668 25.6923C84.8761 25.0924 84.6538 24.4771 84.5001 23.8462C84.5131 23.4596 84.3465 23.1519 84.0001 22.9231C83.6321 24.2923 83.5765 25.6257 83.8335 26.9231C82.7918 27.2244 81.6808 27.327 80.5001 27.2308C80.4458 26.5056 80.5011 25.7876 80.6668 25.0769C80.9578 27.4995 81.1244 27.4482 81.1668 24.9231C81.1111 24.2564 81.0558 23.5898 81.0001 22.9231C80.9228 23.3039 80.7561 23.6115 80.5001 23.8462C80.6428 21.1809 80.7541 18.5142 80.8334 15.8462C81.9151 15.0023 83.1371 14.7971 84.5001 15.2308C85.3095 16.7711 85.9208 18.4121 86.3335 20.1539C87.2225 18.3077 88.1111 16.4615 89.0001 14.6154C90.3071 14.0771 91.3071 14.3848 92.0001 15.5385C92.1111 17.5898 92.2225 19.641 92.3335 21.6923C93.1568 19.5145 94.0458 17.3606 95.0001 15.2308C96.6778 13.9141 98.2335 14.0167 99.6668 15.5385C100.052 16.7507 100.33 17.9815 100.5 19.2308Z" fill="#E48348"/>
<path fill-rule="evenodd" clip-rule="evenodd" d="M43.1667 14.3077C46.2797 14.2565 49.391 14.3077 52.5 14.4615C52.8147 15.2982 52.9257 16.17 52.8333 17.0769C51.7223 17.0769 50.611 17.0769 49.5 17.0769C49.4667 20.4642 49.3553 23.8488 49.1667 27.2308C48.0557 27.2308 46.9443 27.2308 45.8333 27.2308C45.8333 24.0513 45.8333 20.8718 45.8333 17.6923C44.8393 17.8347 43.8393 17.9373 42.8333 18C42.7457 16.7384 42.8567 15.5076 43.1667 14.3077Z" fill="#E5854B"/>
<path fill-rule="evenodd" clip-rule="evenodd" d="M10.5 16.7692C18.0564 16.718 25.6119 16.7692 33.1667 16.9231C34.298 17.4047 34.4093 18.0201 33.5 18.7692C25.7222 18.9744 17.9444 18.9744 10.1667 18.7692C9.71478 18.0264 9.82588 17.3598 10.5 16.7692Z" fill="#D98D1A"/>
<path fill-rule="evenodd" clip-rule="evenodd" d="M65.8333 16.7692C66.1666 16.7692 66.4999 16.7692 66.8333 16.7692C66.8333 17.4872 66.8333 18.2051 66.8333 18.9231C67.4999 18.9231 68.1666 18.9231 68.8333 18.9231C68.9329 19.5705 68.8219 20.1858 68.4999 20.7692C67.1476 20.1363 66.1476 19.2132 65.4999 18C65.6153 17.5849 65.7263 17.1746 65.8333 16.7692Z" fill="#FDF4EE"/>
<path fill-rule="evenodd" clip-rule="evenodd" d="M124.167 17.0769C124.499 17.0505 124.776 17.1531 125 17.3846C125.166 18.0953 125.221 18.8133 125.167 19.5385C125.868 19.4465 126.535 19.5491 127.167 19.8462C126.025 19.9922 124.969 20.2999 124 20.7692C123.833 21.6963 123.666 22.6194 123.5 23.5385C125.149 23.5757 125.149 23.8834 123.5 24.4615C123.118 24.3638 122.84 24.1587 122.667 23.8462C122.114 21.3629 122.614 19.1065 124.167 17.0769Z" fill="#FEF8F4"/>
<path fill-rule="evenodd" clip-rule="evenodd" d="M135.833 18.9231C135.536 19.1107 135.203 19.2133 134.833 19.2308C133.5 19.2308 132.167 19.2308 130.833 19.2308C130.833 18.7179 130.833 18.2051 130.833 17.6923C132.491 17.4881 134.158 17.3855 135.833 17.3846C135.833 17.8974 135.833 18.4102 135.833 18.9231Z" fill="#FEF8F5"/>
<path fill-rule="evenodd" clip-rule="evenodd" d="M140.167 17.0769C142.134 17.364 142.357 18.1846 140.833 19.5384C140.278 19.7436 139.722 19.9487 139.167 20.1538C138.783 19.3519 138.727 18.5314 139 17.6923C139.434 17.5124 139.823 17.3072 140.167 17.0769Z" fill="#FDF5F1"/>
<path fill-rule="evenodd" clip-rule="evenodd" d="M57.1667 19.2308C57.3724 19.2648 57.5391 19.3674 57.6667 19.5385C57.8324 20.3526 57.8881 21.1731 57.8334 22C57.3891 22 56.9444 22 56.5001 22C56.8204 21.0997 57.0424 20.1766 57.1667 19.2308Z" fill="#FCECE3"/>
<path fill-rule="evenodd" clip-rule="evenodd" d="M96.8333 19.2308C97.4216 20.0377 97.6439 20.9608 97.4999 22C97.0556 22 96.6109 22 96.1666 22C96.2189 21.5774 96.1633 21.1671 95.9999 20.7692C95.7536 21.2986 95.4756 21.8115 95.1666 22.3077C95.1049 21.4957 95.3826 20.6752 95.9999 19.8462C96.1056 20.4003 96.3279 20.5028 96.6666 20.1539C96.8276 19.8622 96.8829 19.5545 96.8333 19.2308Z" fill="#F9DCCB"/>
<path fill-rule="evenodd" clip-rule="evenodd" d="M101.167 18C101.222 18.9287 101.166 19.8518 101 20.7692C100.664 20.3 100.497 19.7872 100.5 19.2308C100.722 18.8205 100.944 18.4102 101.167 18Z" fill="#F1BE9F"/>
<path fill-rule="evenodd" clip-rule="evenodd" d="M115.5 19.2308C115.971 20.0673 116.193 20.9903 116.167 22C115.571 22.0878 115.015 21.9852 114.5 21.6923C114.836 20.863 115.169 20.0425 115.5 19.2308Z" fill="#FBE8DC"/>
<path fill-rule="evenodd" clip-rule="evenodd" d="M135.833 18.9231C135.912 19.8795 135.801 20.8026 135.5 21.6923C135.389 21.6923 135.278 21.6923 135.167 21.6923C134.871 20.9063 134.76 20.0858 134.833 19.2308C135.203 19.2132 135.536 19.1107 135.833 18.9231Z" fill="#EFB18B"/>
<path fill-rule="evenodd" clip-rule="evenodd" d="M135.167 21.6923C135.278 21.6923 135.389 21.6923 135.5 21.6923C135.5 22.4103 135.5 23.1282 135.5 23.8462C133.834 23.8462 132.167 23.8462 130.5 23.8462C130.5 23.3333 130.5 22.8205 130.5 22.3077C132.108 22.1562 133.664 21.9511 135.167 21.6923Z" fill="#FDF7F3"/>
<path fill-rule="evenodd" clip-rule="evenodd" d="M10.5 23.8461C14.6126 23.7949 18.7237 23.8462 22.8334 24C23.2778 24.6154 23.2778 25.2308 22.8334 25.8461C18.7222 26.0513 14.6111 26.0513 10.5 25.8461C9.62874 25.156 9.62874 24.4893 10.5 23.8461Z" fill="#D98D1A"/>
<path fill-rule="evenodd" clip-rule="evenodd" d="M84.5001 23.8462C84.2777 24.8718 84.0557 25.8975 83.8334 26.9231C83.5764 25.6257 83.6321 24.2924 84.0001 22.9231C84.3464 23.152 84.5131 23.4596 84.5001 23.8462Z" fill="#EFB28D"/>
<path fill-rule="evenodd" clip-rule="evenodd" d="M60.1667 24.1538C60.3724 24.1879 60.5391 24.2905 60.6667 24.4615C61.4854 26.9027 61.2077 27.1079 59.8334 25.0769C60.0424 24.7948 60.1537 24.4871 60.1667 24.1538Z" fill="#FBE7DB"/>
<path fill-rule="evenodd" clip-rule="evenodd" d="M80.4999 27.2308C80.0556 26.1026 80.0556 24.9744 80.4999 23.8462C80.7559 23.6116 80.9226 23.3039 80.9999 22.9231C81.0556 23.5898 81.1109 24.2564 81.1666 24.9231C81.1243 27.4482 80.9576 27.4995 80.6666 25.0769C80.5009 25.7876 80.4456 26.5056 80.4999 27.2308Z" fill="#EFB591"/>
<path fill-rule="evenodd" clip-rule="evenodd" d="M99.5 23.5385C100.381 24.1588 100.659 24.9793 100.333 26C99.688 25.2899 99.4104 24.4694 99.5 23.5385Z" fill="#FAE2D4"/>
<path fill-rule="evenodd" clip-rule="evenodd" d="M118.167 24.1538C119.026 24.52 119.303 25.1353 119 26C118.32 25.5451 118.043 24.9297 118.167 24.1538Z" fill="#FAE1D3"/>
</svg>
